<?xml version="1.0" standalone="no"?>
<!DOCTYPE svg PUBLIC "-//W3C//DTD SVG 20010904//EN"
 "http://www.w3.org/TR/2001/REC-SVG-20010904/DTD/svg10.dtd">
<svg version="1.0" xmlns="http://www.w3.org/2000/svg"
 width="500.000000pt" height="500.000000pt" viewBox="0 0 500.000000 500.000000"
 preserveAspectRatio="xMidYMid meet">
<metadata>
Created by potrace 1.11, written by Peter Selinger 2001-2013
</metadata>
<g transform="translate(0.000000,500.000000) scale(0.100000,-0.100000)"
fill="#000000" stroke="none">
<path d="M2690 4774 c-151 -102 -281 -188 -288 -193 -10 -5 -13 -39 -13 -127
0 -66 -4 -125 -7 -130 -7 -10 -69 -45 -247 -140 -44 -23 -129 -70 -190 -102
l-110 -60 0 -229 0 -228 -275 -140 -276 -140 1 -802 0 -803 265 -176 c146 -97
269 -180 274 -185 6 -5 10 -91 10 -191 l1 -183 275 -172 275 -172 2 -78 c1
-43 2 -90 2 -104 1 -24 36 -50 292 -220 160 -107 293 -194 296 -194 3 0 137
88 298 195 l294 195 0 2087 1 2087 -287 192 c-158 106 -294 193 -302 195 -9 2
-140 -80 -291 -182z m546 -81 l251 -167 0 -598 c0 -423 -3 -602 -11 -612 -9
-11 -279 -173 -739 -443 l-57 -34 16 -32 c9 -18 18 -34 20 -36 4 -4 39 16 449
259 171 100 313 184 316 186 3 2 6 -355 6 -792 0 -690 -2 -794 -15 -789 -8 3
-112 65 -233 138 l-218 132 -3 265 -3 265 -37 2 c-31 3 -38 0 -39 -14 -4 -80
-1 -552 4 -559 3 -6 127 -84 275 -173 l269 -164 0 -543 0 -544 -255 -170 -254
-171 -28 18 c-15 10 -129 86 -254 168 l-225 150 -3 450 -3 450 -37 3 c-26 2
-38 -1 -39 -10 0 -7 0 -151 0 -321 l0 -307 -22 12 c-40 21 -422 260 -437 274
-13 11 -15 41 -15 168 0 85 3 157 5 160 12 11 504 336 509 335 3 0 119 -76
256 -168 l250 -168 2 -384 c1 -211 2 -393 2 -404 1 -17 8 -20 38 -19 l38 1 2
419 c2 230 -1 424 -5 430 -4 6 -127 91 -274 189 l-268 178 0 308 c0 170 -3
309 -7 310 -54 8 -73 5 -74 -10 0 -9 -1 -149 -2 -311 l-2 -295 -250 -168
c-137 -92 -253 -167 -258 -167 -12 0 -507 329 -508 338 -1 4 -2 345 -3 758
l-1 752 255 127 256 127 255 -127 255 -128 2 -159 1 -159 -277 -184 -277 -185
-1 -240 0 -240 41 0 40 0 0 217 0 218 277 185 278 185 0 182 0 181 275 138
275 137 -2 471 -3 471 -37 3 c-34 3 -38 1 -39 -20 0 -13 -1 -215 -1 -449 l-1
-425 -256 -128 -256 -128 -255 129 -255 128 0 198 c0 109 2 202 5 206 6 9 450
251 460 251 4 0 8 -131 8 -291 0 -207 3 -293 11 -298 6 -4 25 -6 41 -3 l30 4
0 448 0 448 248 166 c136 91 251 165 257 165 5 1 123 -74 261 -166z"/>
</g>
</svg>
